<?xml version="1.0" encoding="iso-8859-1"?>
<!-- Uploaded to: SVG Repo, www.svgrepo.com, Generator: SVG Repo Mixer Tools -->
<svg fill="#000000" height="800px" width="800px" version="1.1" id="Layer_1" xmlns="http://www.w3.org/2000/svg" xmlns:xlink="http://www.w3.org/1999/xlink" 
	 viewBox="0 0 512.001 512.001" xml:space="preserve">
<g>
	<g>
		<path d="M501.802,255.605h-69.355v-27.879h69.354c5.633,0,10.199-4.566,10.199-10.199v-88.506c0-5.633-4.566-10.199-10.199-10.199
			H10.199C4.566,118.822,0,123.388,0,129.021v88.506c0,5.633,4.566,10.199,10.199,10.199h69.355v27.879H10.199
			C4.566,255.604,0,260.171,0,265.803v36.489c0,5.633,4.566,10.199,10.199,10.199h69.355v60.289h-3.059
			c-5.633,0-10.199,4.566-10.199,10.199s4.566,10.199,10.199,10.199h26.518c5.633,0,10.199-4.566,10.199-10.199
			s-4.566-10.199-10.199-10.199h-3.061v-60.288h312.095v60.288h-3.059c-5.633,0-10.199,4.566-10.199,10.199
			s4.566,10.199,10.199,10.199h26.518c5.633,0,10.199-4.566,10.199-10.199s-4.566-10.199-10.199-10.199h-3.059v-60.288h69.355
			c5.633,0,10.199-4.566,10.199-10.199v-36.489C512.001,260.171,507.435,255.605,501.802,255.605z M20.399,207.328V139.22h471.203
			v68.107H20.399z M412.047,255.604H99.952v-27.878h312.095V255.604z M491.601,292.095H20.399v-16.092h471.203V292.095z"/>
	</g>
</g>
<g>
	<g>
		<path d="M89.752,161.659c-5.633,0-10.199,4.566-10.199,10.199v3.059c0,5.633,4.566,10.199,10.199,10.199
			s10.199-4.566,10.199-10.199v-3.059C99.952,166.224,95.386,161.659,89.752,161.659z"/>
	</g>
</g>
<g>
	<g>
		<path d="M422.247,161.659c-5.633,0-10.199,4.566-10.199,10.199v3.059c0,5.633,4.566,10.199,10.199,10.199
			s10.199-4.566,10.199-10.199v-3.059C432.447,166.224,427.88,161.659,422.247,161.659z"/>
	</g>
</g>
</svg>