<?xml version="1.0" encoding="iso-8859-1"?>
<!-- Uploaded to: SVG Repo, www.svgrepo.com, Generator: SVG Repo Mixer Tools -->
<svg fill="#000000" height="800px" width="800px" version="1.1" id="Layer_1" xmlns="http://www.w3.org/2000/svg" xmlns:xlink="http://www.w3.org/1999/xlink" 
	 viewBox="0 0 512 512" xml:space="preserve">
<g>
	<g>
		<g>
			<path d="M284.381,238.165c1.259,0.469,2.56,0.704,3.84,0.704c4.288,0,8.32-2.603,9.963-6.827
				c4.459-11.605,10.283-22.635,17.323-32.747c3.371-4.843,2.155-11.499-2.667-14.848c-4.843-3.371-11.477-2.155-14.848,2.667
				c-8,11.52-14.635,24.043-19.712,37.248C276.125,229.867,278.877,236.053,284.381,238.165z"/>
			<path d="M255.986,64c5.888,0,10.667-4.779,10.667-10.667V10.667C266.653,4.779,261.874,0,255.986,0
				c-5.888,0-10.667,4.779-10.667,10.667v42.667C245.32,59.221,250.098,64,255.986,64z"/>
			<path d="M333.277,174.528c2.432,0,4.864-0.832,6.869-2.517c9.728-8.192,20.096-14.443,30.805-18.56
				c5.504-2.112,8.235-8.299,6.123-13.781c-2.112-5.483-8.299-8.256-13.781-6.123c-12.928,4.971-25.344,12.437-36.885,22.165
				c-4.501,3.797-5.077,10.517-1.28,15.04C327.218,173.227,330.226,174.528,333.277,174.528z"/>
			<path d="M405.96,147.307c12.117,0.021,24,2.112,35.285,6.187c1.195,0.448,2.432,0.64,3.627,0.64c4.373,0,8.469-2.688,10.027-7.04
				c2.005-5.547-0.875-11.648-6.4-13.653c-13.632-4.907-27.925-7.424-42.496-7.467c-5.888,0-10.667,4.757-10.667,10.645
				S400.05,147.285,405.96,147.307z"/>
			<path d="M480.264,183.68c1.131,4.949,5.525,8.32,10.389,8.32c0.789,0,1.579-0.085,2.368-0.256
				c5.739-1.301,9.344-7.019,8.043-12.757c-1.685-7.403-6.763-15.317-14.741-22.912c-4.245-4.011-11.008-3.883-15.083,0.384
				c-4.053,4.267-3.904,11.029,0.384,15.083C477.149,176.789,479.709,181.269,480.264,183.68z"/>
			<path d="M255.986,128c5.888,0,10.667-4.779,10.667-10.667V96c0-5.888-4.779-10.667-10.667-10.667
				c-5.888,0-10.667,4.779-10.667,10.667v21.333C245.32,123.221,250.098,128,255.986,128z"/>
			<path d="M18.952,191.723c0.811,0.192,1.6,0.277,2.389,0.277c4.864,0,9.259-3.349,10.389-8.299
				c0.555-2.453,3.115-6.933,8.64-12.181c4.267-4.053,4.437-10.816,0.384-15.083c-4.053-4.267-10.816-4.437-15.083-0.384
				c-7.957,7.552-13.035,15.488-14.72,22.891C9.608,184.704,13.213,190.421,18.952,191.723z"/>
			<path d="M490.653,277.333H288.584c0.192-3.115,0.149-6.251,0.533-9.344c0.725-5.845-3.413-11.179-9.259-11.904
				c-5.824-0.619-11.179,3.435-11.904,9.259c-0.491,3.947-0.469,7.979-0.683,11.989h-0.619V160c0-5.888-4.779-10.667-10.667-10.667
				c-5.888,0-10.667,4.779-10.667,10.667v117.333h-0.597c-0.213-4.011-0.171-8.021-0.683-11.989
				c-0.747-5.824-6.101-9.877-11.904-9.259c-5.845,0.725-9.984,6.059-9.259,11.904c0.384,3.072,0.341,6.208,0.533,9.344H21.341
				c-5.888,0-10.667,4.779-10.667,10.667c0,49.387,64.192,91.648,154.688,108.928c1.664,7.701,5.333,14.912,8.768,21.461
				c3.691,7.019,7.189,13.675,7.189,18.944c0,8.448-15.872,17.856-28.608,25.408c-17.408,10.325-35.392,20.971-35.392,38.592
				c0,5.888,4.779,10.667,10.667,10.667h256c5.888,0,10.667-4.779,10.667-10.667c0-17.621-17.984-28.267-35.392-38.592
				c-12.736-7.552-28.608-16.96-28.608-25.408c0-5.269,3.499-11.925,7.211-18.944c3.435-6.549,7.104-13.739,8.768-21.461
				C437.128,379.648,501.32,337.365,501.32,288C501.32,282.112,496.541,277.333,490.653,277.333z"/>
			<path d="M141.042,153.451c10.709,4.117,21.077,10.368,30.805,18.56c2.005,1.685,4.437,2.517,6.869,2.517
				c3.051,0,6.059-1.301,8.171-3.797c3.797-4.501,3.221-11.243-1.28-15.04c-11.541-9.728-23.957-17.195-36.885-22.165
				c-5.461-2.069-11.669,0.619-13.781,6.123C132.808,145.152,135.538,151.339,141.042,153.451z"/>
			<path d="M67.101,154.133c1.195,0,2.432-0.192,3.627-0.64c11.307-4.075,23.168-6.165,35.285-6.187
				c5.888,0,10.667-4.8,10.645-10.688c-0.021-5.888-4.779-10.645-10.667-10.645c-14.592,0.021-28.885,2.539-42.517,7.467
				c-5.547,2.005-8.405,8.107-6.4,13.653C58.653,151.424,62.749,154.133,67.101,154.133z"/>
			<path d="M213.81,232.043c1.643,4.245,5.675,6.827,9.963,6.827c1.28,0,2.581-0.235,3.84-0.704
				c5.504-2.112,8.235-8.299,6.123-13.781c-5.077-13.205-11.712-25.728-19.712-37.248c-3.371-4.843-10.005-6.037-14.848-2.667
				c-4.843,3.349-6.037,10.005-2.667,14.848C203.528,209.408,209.352,220.437,213.81,232.043z"/>
		</g>
	</g>
</g>
</svg>