<?xml version="1.0" encoding="UTF-8"?>
<svg id="Layer_1" xmlns="http://www.w3.org/2000/svg" viewBox="0 0 190.36 246">
  <defs>
    <style>
      .cls-1 {
        fill: #fff;
      }

      .cls-2 {
        fill: #404ca0;
      }
    </style>
  </defs>
  <rect class="cls-2" width="190.36" height="246" rx="17.5" ry="17.5"/>
  <path class="cls-1" d="M59.68,187.8V58.2h35.2c10.53,0,18.33,1.53,23.4,4.6,5.07,3.07,8.4,7.27,10,12.6,1.6,5.33,2.4,11.47,2.4,18.4v4.4l-.2,4.4v3.6l-.2,4c0,8.13-1.1,14.47-3.3,19-2.2,4.53-5.4,7.77-9.6,9.7-4.2,1.93-9.27,3.1-15.2,3.5-5.93.4-12.57.6-19.9.6v44.8h-22.6ZM82.28,122c6.27,0,11.13-.07,14.6-.2,3.46-.13,6-.57,7.6-1.3,1.6-.73,2.6-1.93,3-3.6.4-1.67.6-4.1.6-7.3v-18c0-4.4-1-7.47-3-9.2-2-1.73-4.53-2.7-7.6-2.9-3.07-.2-6.27-.3-9.6-.3h-5.6v42.8Z"/>
</svg>