<?xml version="1.0" ?>
<!-- Uploaded to: SVG Repo, www.svgrepo.com, Generator: SVG Repo Mixer Tools -->
<svg fill="#000000" width="800px" height="800px" viewBox="0 0 50 50" xmlns="http://www.w3.org/2000/svg">
<g id="Solid">
<path d="M43,11a2.95165,2.95165,0,0,1,.33148.03461A7.00319,7.00319,0,0,0,37,7H34V5a3.00328,3.00328,0,0,0-3-3H19a3.00328,3.00328,0,0,0-3,3V7H13a7.00292,7.00292,0,0,0-6.33154,4.03455A2.93925,2.93925,0,0,1,7,11ZM18,5a1.001,1.001,0,0,1,1-1H31a1.00067,1.00067,0,0,1,1,1V7H18Zm27,8H5a3.00328,3.00328,0,0,0-3,3v6a3.00328,3.00328,0,0,0,3,3H6.783L7.86963,40.21387a2.96971,2.96971,0,0,0,.53943,1.49664A3.50619,3.50619,0,1,0,13.64893,43H36.35107A3.45946,3.45946,0,0,0,36,44.5a3.5,3.5,0,1,0,5.59045-2.78992,2.97128,2.97128,0,0,0,.53943-1.49621L43.21649,25H45a3.00328,3.00328,0,0,0,3-3V16A3.00328,3.00328,0,0,0,45,13ZM5,23a1.001,1.001,0,0,1-1-1V16a1.001,1.001,0,0,1,1-1H6.06879l.57135,8Zm7-4a.99974.99974,0,0,1,1-1H37a.99943.99943,0,0,1,1,1V29a.99943.99943,0,0,1-1,1H13a.99974.99974,0,0,1-1-1ZM10.5,46A1.5,1.5,0,1,1,12,44.5,1.50164,1.50164,0,0,1,10.5,46ZM14,38a1,1,0,0,1-2,0V33a1,1,0,0,1,2,0Zm6,0a1,1,0,0,1-2,0V33a1,1,0,0,1,2,0Zm6,0a1,1,0,0,1-2,0V33a1,1,0,0,1,2,0Zm6,0a1,1,0,0,1-2,0V33a1,1,0,0,1,2,0Zm5,1a.99943.99943,0,0,1-1-1V33a1,1,0,0,1,2,0v5A.99943.99943,0,0,1,37,39Zm2.5,7A1.5,1.5,0,1,1,41,44.5,1.50164,1.50164,0,0,1,39.5,46ZM46,22a1.00067,1.00067,0,0,1-1,1H43.35938l.57135-8H45a1.00067,1.00067,0,0,1,1,1ZM36,20H14v8H36Zm-3,5H17a1,1,0,0,1,0-2H33a1,1,0,0,1,0,2Z"/>
</g>
</svg>