<?xml version="1.0" encoding="UTF-8"?>
<svg id="Layer_1" xmlns="http://www.w3.org/2000/svg" viewBox="0 0 50.31 54.38">
  <defs>
    <style>
      .cls-1 {
        fill: #fee100;
      }

      .cls-2 {
        fill: #404ca0;
      }

      .cls-3 {
        fill: #fee000;
      }
    </style>
  </defs>
  <path class="cls-2" d="M0,0v29.22c0,13.89,11.26,25.16,25.16,25.16s25.16-11.27,25.16-25.16V0H0Z"/>
  <path class="cls-1" d="M41.35,38.69l-.25.02c-.21.09-.38.24-.55.39-.67.6-1.34,1.21-2.11,1.69-3.24,1.97-6.73,3.01-10.54,2.88-2.65-.09-5.16-.74-7.51-1.96-3.6-1.87-6.28-4.65-8.02-8.32-.95-2.01-1.49-4.13-1.6-6.35-.11-2.28.26-4.5.84-6.69.33-1.25.91-2.36,1.92-3.2,1.32-1.11,2.81-1.94,4.45-2.47.86-.28,1.73-.43,2.64-.3,1.13.17,1.81.82,1.82,1.84.01.87-.23,1.66-.94,2.22-.72.58-1.53.3-1.76-.59-.06-.24-.1-.48-.16-.71l-.14-.17-.17.17c-.34.85.18,1.92,1.05,2.11.87.19,1.64-.03,2.24-.7.6-.67.78-1.5.81-2.38l.05-.27.25.12c.9.59,1.87,1,2.92,1.21,1.52.31,2.93.1,4.16-.9.43-.34.76-.76.95-1.29.41-1.19-.25-2.28-1.44-2.4-.85-.09-1.92.68-2.13,1.55l.03.06c.21-.1.36-.26.54-.4.29-.23.6-.41.96-.5.6-.14,1.07.11,1.27.7.2.58.01,1.22-.53,1.58-.97.65-2.06.92-3.22.83-1.05-.08-1.85-.72-2.6-1.39-.29-.26-.28-.27.07-.45l.35-.21c.54-.39.88-.88.78-1.6-.04-.28.04-.57.17-.83l.25-.53c.2-.56-.09-1.38-.58-1.64-.04.2.06.36.1.54l.03.5-.28.06-.46-.36c-.55-.27-1.22-.05-1.56.49-.28.44-.14,1.02.32,1.38.17.13.37.18.57.24.17.05.41.03.45.26.04.23-.15.37-.31.5l-.22.15c-.44.25-.92.29-1.4.21-1.67-.3-3.34-.21-5.01.02-.76.1-1.54.16-2.3.25.27-.4.6-.7.95-.99,3.67-3.08,7.82-4.86,12.71-4.56,2.8.17,5.39.99,7.7,2.6,1.08.75,1.99,1.66,2.49,2.91l.21.35.26.15.19-.27c.02-.2.01-.39.01-.59.01-1.69.02-3.37.04-5.06l-.07-.55c-.13-.24-.27-.3-.48-.11l-.39.44c-.6.74-1.08.89-1.99.59-.83-.28-1.6-.7-2.38-1.08-3.27-1.61-6.75-2.21-10.37-1.99-2.73.17-5.3.94-7.72,2.21-3.35,1.75-6.02,4.24-7.99,7.46-2.48,4.05-3.45,8.45-2.89,13.16.55,4.67,2.52,8.68,5.81,12.04,2.09,2.13,4.55,3.71,7.35,4.76,2.51.94,5.11,1.36,7.79,1.25,2.91-.12,5.68-.81,8.32-2.04,2.52-1.18,4.54-2.92,6.03-5.28l.24-.51-.02-.25Z"/>
  <path class="cls-3" d="M17.23,27.11c.95.01,1.79-.76,1.8-1.66,0-.93-.79-1.78-1.68-1.79-.93,0-1.75.78-1.75,1.67,0,.95.75,1.77,1.64,1.77"/>
  <path class="cls-3" d="M18.92,20.81c0-.96-.76-1.77-1.67-1.77s-1.75.76-1.76,1.65c0,.95.78,1.78,1.68,1.78s1.75-.78,1.76-1.66"/>
  <path class="cls-3" d="M18.51,31.83c.96,0,1.77-.77,1.77-1.68,0-.93-.79-1.75-1.68-1.75-.93,0-1.76.78-1.76,1.66,0,.97.75,1.77,1.67,1.77"/>
  <path class="cls-3" d="M27.15,31.74c.92.01,1.76-.78,1.76-1.67,0-.94-.76-1.77-1.65-1.78-.94-.01-1.77.78-1.78,1.68,0,.93.78,1.75,1.66,1.76"/>
  <path class="cls-3" d="M27.55,26.63c0-.94-.78-1.76-1.69-1.76s-1.76.79-1.76,1.67c0,.93.8,1.76,1.7,1.76.93,0,1.75-.78,1.75-1.67"/>
  <path class="cls-3" d="M30.43,29.23c.92,0,1.75-.79,1.76-1.67,0-.93-.82-1.79-1.72-1.77-.92.01-1.73.81-1.73,1.69,0,.94.79,1.76,1.69,1.75"/>
  <path class="cls-3" d="M27.93,23.65c.01.92.81,1.74,1.69,1.74.96,0,1.76-.77,1.76-1.68s-.78-1.76-1.66-1.77c-.92-.01-1.8.83-1.79,1.71"/>
  <path class="cls-3" d="M32.47,22.69c.95,0,1.78-.77,1.78-1.67,0-.93-.79-1.77-1.67-1.79-.91-.01-1.77.8-1.77,1.69,0,.91.79,1.75,1.66,1.76"/>
  <path class="cls-3" d="M28.58,18.22c-.93,0-1.77.82-1.76,1.7.01.92.81,1.76,1.68,1.76.93,0,1.77-.82,1.76-1.71-.01-.92-.81-1.75-1.68-1.75"/>
  <path class="cls-3" d="M25.54,21.09c-.94,0-1.75.78-1.75,1.67,0,.96.78,1.76,1.69,1.76.92,0,1.75-.79,1.76-1.67,0-.93-.81-1.77-1.7-1.76"/>
  <path class="cls-3" d="M21.04,29.92c0,.92.8,1.76,1.67,1.77.93,0,1.77-.79,1.77-1.69,0-.95-.77-1.76-1.69-1.76-.9,0-1.76.82-1.75,1.68"/>
  <path class="cls-3" d="M21.34,27.71c.94.01,1.78-.77,1.79-1.66.01-.92-.77-1.76-1.65-1.77-.94-.01-1.79.74-1.8,1.62-.02.98.74,1.81,1.66,1.82"/>
  <path class="cls-3" d="M21.43,23.44c.95,0,1.77-.8,1.76-1.69,0-.92-.82-1.76-1.69-1.75-.94,0-1.76.81-1.76,1.71.01.93.79,1.74,1.69,1.74"/>
  <path class="cls-3" d="M20.69,35.77c.93,0,1.75-.79,1.75-1.68,0-.94-.8-1.79-1.67-1.79-.92,0-1.78.82-1.77,1.7,0,.92.83,1.77,1.7,1.76"/>
  <path class="cls-3" d="M23.37,39.47c.93,0,1.76-.82,1.75-1.71,0-.93-.8-1.74-1.69-1.73-.94,0-1.77.81-1.76,1.7.01.91.84,1.76,1.7,1.75"/>
  <path class="cls-3" d="M26.39,33.77c0-.94-.79-1.77-1.69-1.76-.93,0-1.74.78-1.74,1.68,0,.95.78,1.77,1.68,1.77.92,0,1.75-.8,1.75-1.68"/>
  <path class="cls-3" d="M27.34,35.26c-.93.02-1.77.83-1.76,1.7,0,.93.79,1.74,1.68,1.74.97,0,1.77-.75,1.77-1.67,0-.93-.82-1.79-1.68-1.77"/>
  <path class="cls-3" d="M27.08,39.08c-.92,0-1.75.79-1.76,1.67,0,.92.82,1.78,1.7,1.77.94-.01,1.73-.78,1.73-1.69s-.76-1.74-1.66-1.74"/>
  <path class="cls-3" d="M30.56,33.46c0-.94-.79-1.77-1.69-1.77-.94,0-1.79.81-1.77,1.69.01.93.8,1.74,1.7,1.74.93,0,1.76-.78,1.76-1.66"/>
  <path class="cls-3" d="M33.45,30.98c0-.93-.82-1.77-1.7-1.76-.91.01-1.76.82-1.76,1.68-.01.91.83,1.79,1.69,1.79.93,0,1.77-.82,1.77-1.7"/>
  <path class="cls-3" d="M35.33,24.66c0-.91-.8-1.73-1.69-1.73-.92,0-1.75.78-1.77,1.66-.01.91.8,1.78,1.68,1.79.93.01,1.78-.81,1.78-1.72"/>
</svg>